HIERARCHY
ROOT Hips
{
	OFFSET -0.179506 -22.333345 2.821913
	CHANNELS 6 Xposition Yposition Zposition Zrotation Yrotation Xrotation 
	JOINT LeftUpLeg
	{
		OFFSET 6.951974 -9.140623 -0.681533
		CHANNELS 3 Zrotation Yrotation Xrotation
		JOINT LeftLeg
		{
			OFFSET 3.427654 -37.519855 -0.449580
			CHANNELS 3 Zrotation Yrotation Xrotation
			JOINT LeftFoot
			{
				OFFSET -1.359570 -39.796059 -4.369333
				CHANNELS 3 Zrotation Yrotation Xrotation
				JOINT LeftToe
				{
					OFFSET 2.635814 -5.579078 11.928840
					CHANNELS 3 Zrotation Yrotation Xrotation
					End Site
					{
						OFFSET 0.000000 0.000000 0.000000
					}
				}
			}
		}
	}
	JOINT RightUpLeg
	{
		OFFSET -6.767048 -9.052170 -0.431982
		CHANNELS 3 Zrotation Yrotation Xrotation
		JOINT RightLeg
		{
			OFFSET -3.829005 -38.256897 -0.885003
			CHANNELS 3 Zrotation Yrotation Xrotation
			JOINT RightFoot
			{
				OFFSET 1.577377 -39.841461 -4.231180
				CHANNELS 3 Zrotation Yrotation Xrotation
				JOINT RightToe
				{
					OFFSET -2.537174 -4.814398 12.334795
					CHANNELS 3 Zrotation Yrotation Xrotation
					End Site
					{
						OFFSET 0.000000 0.000000 0.000000
					}
				}
			}
		}
	}
	JOINT Spine
	{
		OFFSET -0.253288 10.896323 -2.669631
		CHANNELS 3 Zrotation Yrotation Xrotation
		JOINT Spine1
		{
			OFFSET 0.548704 13.518043 0.109247
			CHANNELS 3 Zrotation Yrotation Xrotation
			JOINT Spine2
			{
				OFFSET 0.145701 5.292222 2.542457
				CHANNELS 3 Zrotation Yrotation Xrotation
				JOINT Neck
				{
					OFFSET -0.277840 21.387037 -4.285703
					CHANNELS 3 Zrotation Yrotation Xrotation
					JOINT Head
					{
						OFFSET 0.515184 6.496960 5.134897
						CHANNELS 3 Zrotation Yrotation Xrotation
						End Site
						{
							OFFSET 0.000000 0.000000 0.000000
						}
					}
				}
				JOINT LeftShoulder
				{
					OFFSET 7.884473 12.174932 -3.408961
					CHANNELS 3 Zrotation Yrotation Xrotation
					JOINT LeftArm
					{
						OFFSET 9.097692 3.046888 -0.886815
						CHANNELS 3 Zrotation Yrotation Xrotation
						JOINT LeftForeArm
						{
							OFFSET 25.961220 -1.277207 -2.745643
							CHANNELS 3 Zrotation Yrotation Xrotation
							JOINT LeftHand
							{
								OFFSET 24.923361 0.898606 -0.117091
								CHANNELS 3 Zrotation Yrotation Xrotation
								End Site
								{
									OFFSET 0.000000 0.000000 0.000000
								}
							}
						}
					}
				}
				JOINT RightShoulder
				{
					OFFSET -8.175920 11.883285 -3.861528
					CHANNELS 3 Zrotation Yrotation Xrotation
					JOINT RightArm
					{
						OFFSET -9.601238 3.255117 -0.914307
						CHANNELS 3 Zrotation Yrotation Xrotation
						JOINT RightForeArm
						{
							OFFSET -25.374195 -1.332924 -2.140099
							CHANNELS 3 Zrotation Yrotation Xrotation
							JOINT RightHand
							{
								OFFSET -25.529810 0.777228 -0.555919
								CHANNELS 3 Zrotation Yrotation Xrotation
								End Site
								{
									OFFSET 0.000000 0.000000 0.000000
								}
							}
						}
					}
				}
			}
		}
	}
}
MOTION
Frames: 11
Frame Time: 0.033333
74.132454 105.252022 -74.368385 -176.118164 -33.623429 179.855239 31.777207 21.205219 -15.831332 -2.028568 3.708888 30.585801 -13.392377 21.107603 20.912863 5.911369 -0.116394 -4.706569 -14.940348 -11.650211 -8.530549 3.067482 4.020138 21.268126 5.931155 -19.832431 -0.559091 -3.628461 -5.319064 1.709069 2.110862 -6.551121 5.524218 -12.970162 -7.923173 -9.308436 -0.025226 -7.170988 3.629584 -9.609393 8.345974 -1.179937 14.351669 43.536788 4.773616 1.783678 -15.261251 -4.515530 -28.788742 -11.203579 5.348691 -8.611442 -9.592495 44.810276 -4.435673 -9.063493 15.750487 -40.198837 0.155924 -15.216189 -27.516259 0.709837 -42.283100 -0.894450 10.184687 -24.172905 -5.350043 9.814571 -2.849461 
74.649086 105.425362 -74.828926 -177.745567 -26.440201 -179.613019 33.505150 17.821820 -11.752415 -1.733530 -2.396533 27.775538 -15.724873 21.545164 26.610018 6.346748 0.232201 -5.780786 -13.450569 -10.070614 -12.124754 3.565640 6.796216 24.154314 2.047860 -21.613446 -1.095409 -3.962320 -6.648811 1.404202 2.533966 -7.920306 5.031116 -14.005632 -7.773678 -9.908503 -0.246466 -7.224628 4.157517 -11.922945 8.913059 -1.095696 15.202136 46.664468 6.487782 1.476228 -17.028668 -5.212383 -34.433534 -13.778030 5.528564 -7.786076 -10.325288 43.831919 -1.871038 -9.258985 14.107245 -42.145959 0.453666 -15.880312 -29.076734 0.527232 -44.446693 -1.389968 11.064886 -26.067597 -5.565171 10.004847 -4.062167 
78.868439 105.248886 -75.934616 -178.825536 -19.952662 -179.817511 34.609365 15.313825 -8.487414 -0.874748 -5.823318 24.571780 -16.944233 22.264103 30.061313 6.372001 0.521633 -6.175106 -11.152155 -8.642579 -15.241749 4.941377 7.134890 27.209226 0.044335 -19.830471 -5.556593 -2.454643 -7.758512 1.992081 3.014162 -9.061101 4.444585 -14.889752 -7.701932 -10.539409 -0.441793 -7.366194 4.399819 -13.323790 9.903701 -1.401332 15.845632 48.814252 7.982706 1.811595 -18.620937 -6.547105 -39.720984 -17.286223 6.298419 -6.669752 -11.313591 42.503556 0.626541 -9.571811 14.350827 -43.451998 0.416449 -16.629024 -30.397858 0.978905 -45.581072 -2.507379 12.493598 -26.513432 -6.363679 10.550377 -4.236666 
82.345795 104.816284 -76.167511 -179.770158 -14.098085 179.828462 34.960101 13.273560 -5.465675 -0.550537 -8.537866 21.522338 -17.586865 22.755992 33.803510 6.092528 0.307755 -7.085147 -9.407215 -6.950771 -18.161388 6.206057 8.155178 30.478095 -1.287502 -18.078930 -9.054381 -1.892935 -7.903549 2.394920 3.321777 -10.097596 4.238754 -15.436578 -7.995464 -10.903318 -0.670291 -7.621837 4.381028 -13.819528 10.734525 -2.059888 16.749869 50.342689 8.988584 2.011809 -20.031066 -7.601343 -44.210320 -20.470624 7.094031 -6.273501 -12.569172 42.499151 0.545821 -9.183784 14.895821 -44.150034 0.039348 -17.317768 -31.622851 1.669821 -46.650785 -3.784522 13.836466 -25.833643 -4.818472 10.977844 -3.728661 
85.376053 104.298378 -76.156212 179.232323 -9.048704 178.905817 34.662634 12.599117 -3.545053 -0.202528 -8.243901 19.416814 -17.913613 23.027436 35.313693 6.068563 0.379258 -6.986247 -7.942128 -5.574929 -19.482817 6.444146 7.801909 32.236396 -2.756028 -17.061841 -12.370314 -0.976161 -7.726161 2.801655 3.366744 -10.866762 4.446046 -15.607686 -8.138913 -10.759112 -0.657624 -7.884510 4.281753 -13.784061 11.259336 -2.503009 16.979042 51.097327 9.732053 2.668601 -21.613074 -8.188684 -48.498562 -23.420041 8.243960 -6.261114 -13.645603 42.863060 0.289468 -9.486948 14.543892 -44.606272 -0.142263 -17.948855 -31.962475 2.828080 -47.080536 -5.266480 15.167106 -25.171784 -5.062114 11.072998 -2.411498 
86.043098 103.776878 -76.681076 179.786406 -4.231175 178.687428 34.360328 11.979025 -2.045962 0.266955 -8.942955 18.200131 -17.657880 23.539699 35.577739 5.825249 0.156121 -7.553518 -6.634696 -4.589009 -20.465926 7.133091 8.158636 33.208233 -2.862632 -15.555307 -14.631546 -0.756097 -7.869848 3.552021 4.141559 -11.503021 3.726941 -15.387607 -8.273959 -9.799903 -0.511348 -8.308448 3.719797 -13.765224 11.603022 -2.487172 16.230635 50.855373 9.714115 3.701188 -23.635536 -9.006941 -52.715742 -25.640964 9.994761 -6.497815 -14.528259 42.690213 0.683472 -9.999688 13.822589 -45.409400 0.132533 -18.788649 -32.106297 3.579377 -47.001174 -6.621371 17.655393 -24.326735 -6.273852 11.394739 -2.445661 
87.596367 103.370453 -75.997162 -179.997944 1.460228 178.371309 32.634117 10.967961 -0.161494 0.151802 -10.776268 19.418350 -16.952625 22.969963 35.170376 5.080627 0.069382 -7.096039 -4.896312 -3.284883 -21.491726 7.101859 8.049666 32.671602 -2.663921 -13.389978 -16.566285 -0.642574 -7.209141 4.164406 4.330465 -11.993591 2.999974 -14.610838 -8.799659 -9.528669 -0.221327 -8.612591 3.378856 -14.041005 11.687422 -2.639944 15.476701 51.261339 9.605119 4.582054 -25.597225 -9.687677 -55.477232 -26.365946 10.893582 -6.828257 -15.602546 43.582006 -0.619291 -9.308294 14.414154 -45.996522 0.433624 -19.871742 -32.891655 3.383658 -47.167133 -6.824149 19.169847 -23.579395 -6.215134 11.237849 -0.979426 
89.055908 103.141335 -75.763504 -179.716488 5.984938 178.227203 31.156841 10.674326 1.452644 0.366813 -11.529301 19.571198 -16.683070 23.052521 35.592466 4.732991 0.067726 -6.525831 -2.989590 -2.173247 -22.278745 6.980219 8.101707 32.883605 -2.839138 -11.731892 -17.484754 -0.336878 -6.580606 4.394570 4.921876 -12.443198 2.135327 -14.263749 -9.092039 -8.961416 0.115020 -8.775338 2.836737 -14.485545 11.475695 -1.960412 14.652252 51.757228 9.107530 4.591141 -27.407865 -9.650289 -57.899605 -26.830362 11.450721 -6.746675 -15.752192 42.768631 -0.879598 -9.144460 14.454977 -46.999050 0.991866 -20.544091 -33.241156 3.906192 -46.954710 -7.415687 21.385824 -22.327577 -5.770943 11.193495 -0.253014 
90.786674 103.124062 -75.813492 179.805898 10.130251 178.152166 29.785782 10.295453 2.395563 -0.060842 -12.297976 21.096619 -16.567156 22.709701 36.126643 4.384935 0.146292 -6.252194 -1.695632 -1.243936 -21.928958 6.771477 8.701144 31.662203 -2.829354 -10.578039 -18.687949 -0.127473 -5.873232 4.078879 5.360983 -12.596809 1.710505 -13.851514 -9.437735 -8.444860 0.385831 -8.785793 2.323671 -14.600976 11.011921 -1.214346 14.071889 52.032267 8.871673 4.440734 -28.527086 -9.578634 -59.615149 -26.520176 11.585001 -6.993899 -16.325546 43.611561 -1.142588 -8.887378 15.089131 -47.663184 1.133679 -21.048575 -33.985105 3.854467 -46.478641 -8.432578 24.028448 -21.435438 -5.369026 10.740088 0.822368 
91.636467 103.307777 -76.018051 179.539946 14.324496 177.642247 27.620670 10.342716 2.249406 -0.827818 -11.717143 25.161437 -15.266854 22.377661 35.331989 3.915652 0.065651 -6.311698 -0.831916 -1.367183 -20.865735 6.069588 8.361865 30.070666 -2.006869 -7.859060 -18.996719 -0.407175 -5.729805 4.004773 5.514770 -12.485824 1.552223 -13.463358 -9.543095 -7.624287 0.613931 -8.624857 1.745967 -14.718851 10.434398 -0.374108 13.784143 52.363733 9.101264 4.205929 -29.406774 -9.513381 -61.203883 -25.961736 11.779192 -7.091075 -16.071148 43.706515 -0.652625 -9.345680 15.032170 -48.369701 1.190394 -21.097807 -33.884495 3.992366 -45.962353 -9.798492 28.336112 -20.377718 -5.727505 11.499982 1.977462 
91.690605 103.583069 -76.442558 179.542276 17.766959 176.771069 25.362871 10.318154 1.917309 -2.345971 -11.164878 29.426029 -14.503638 21.270225 32.428621 3.824374 -0.057382 -6.247617 -0.129734 -1.309555 -19.339121 5.380517 8.982004 28.885931 -0.980615 -6.377519 -18.822614 -0.318978 -5.075897 3.579682 6.205100 -12.026532 1.597214 -13.410465 -9.684568 -6.740967 0.603419 -8.553048 1.510907 -14.861518 9.130545 0.344459 14.030830 52.922385 9.653802 2.922347 -29.716891 -8.775231 -61.444923 -24.063807 11.077586 -7.136303 -16.041156 43.844898 -1.207990 -8.983729 14.240819 -49.267251 1.494640 -21.507462 -34.734818 4.167833 -45.823790 -10.749918 31.153301 -20.309427 -4.688838 11.713479 2.381709 
